<svg width="763" height="763" viewBox="0 0 763 763" fill="none" xmlns="http://www.w3.org/2000/svg">
<path d="M381.049 190.524C357.498 190.524 334.476 197.508 314.893 210.593C295.311 223.677 280.048 242.275 271.036 264.033C262.023 285.792 259.665 309.734 264.26 332.833C268.854 355.932 280.195 377.15 296.849 393.803C313.502 410.456 334.72 421.797 357.818 426.392C380.917 430.987 404.86 428.629 426.619 419.616C448.377 410.603 466.975 395.341 480.059 375.758C493.143 356.176 500.127 333.154 500.127 309.602C500.127 278.021 487.582 247.733 465.25 225.402C442.919 203.07 412.631 190.524 381.049 190.524ZM381.049 381.049C366.919 381.049 353.105 376.859 341.356 369.008C329.606 361.157 320.449 349.999 315.041 336.944C309.634 323.889 308.219 309.523 310.975 295.664C313.732 281.804 320.537 269.074 330.529 259.082C340.521 249.09 353.252 242.285 367.111 239.528C380.97 236.772 395.336 238.186 408.391 243.594C421.446 249.002 432.605 258.159 440.455 269.909C448.306 281.658 452.496 295.471 452.496 309.602C452.475 328.545 444.94 346.705 431.546 360.099C418.152 373.493 399.992 381.028 381.049 381.049Z" fill="black"/>
<path d="M381.049 47.6313C315.105 47.6313 250.642 67.186 195.812 103.822C140.982 140.459 98.2468 192.532 73.0112 253.456C47.7756 314.38 41.1728 381.419 54.0378 446.096C66.9028 510.773 98.6578 570.182 145.287 616.812C191.916 663.441 251.326 695.196 316.003 708.061C380.679 720.926 447.719 714.323 508.643 689.087C569.567 663.852 621.64 621.117 658.276 566.286C694.913 511.456 714.467 446.993 714.467 381.049C714.368 292.652 679.208 207.904 616.701 145.397C554.195 82.8908 469.447 47.7309 381.049 47.6313ZM238.156 628.172V595.39C238.177 576.447 245.711 558.286 259.105 544.892C272.499 531.498 290.66 523.964 309.603 523.943H452.496C471.438 523.964 489.599 531.498 502.993 544.892C516.388 558.286 523.922 576.447 523.943 595.39V628.172C480.579 653.493 431.265 666.836 381.049 666.836C330.834 666.836 281.52 653.493 238.156 628.172ZM571.395 593.622C570.922 562.382 558.193 532.579 535.952 510.635C513.712 488.692 483.74 476.365 452.496 476.312H309.603C278.359 476.365 248.387 488.692 226.146 510.635C203.906 532.579 191.177 562.382 190.703 593.622C147.515 555.059 117.059 504.287 103.368 448.03C89.6762 391.772 93.3952 332.683 114.032 278.587C134.669 224.49 171.251 177.937 218.934 145.093C266.616 112.249 323.15 94.663 381.049 94.663C438.949 94.663 495.483 112.249 543.165 145.093C590.847 177.937 627.429 224.49 648.066 278.587C668.703 332.683 672.422 391.772 658.731 448.03C645.039 504.287 614.583 555.059 571.395 593.622Z" fill="black"/>
</svg>
