<svg width="763" height="763" viewBox="0 0 763 763" fill="none" xmlns="http://www.w3.org/2000/svg">
<path d="M571.574 254.033H635.082C643.504 254.033 651.58 257.378 657.535 263.333C663.49 269.288 666.836 277.365 666.836 285.787V666.836C666.836 675.258 663.49 683.335 657.535 689.29C651.58 695.245 643.504 698.59 635.082 698.59H127.016C118.595 698.59 110.518 695.245 104.563 689.29C98.6077 683.335 95.2622 675.258 95.2622 666.836V285.787C95.2622 277.365 98.6077 269.288 104.563 263.333C110.518 257.378 118.595 254.033 127.016 254.033H190.525V222.279C190.525 171.748 210.598 123.288 246.328 87.5575C282.058 51.8272 330.519 31.7542 381.049 31.7542C431.579 31.7542 480.04 51.8272 515.77 87.5575C551.501 123.288 571.574 171.748 571.574 222.279V254.033ZM158.77 317.541V635.082H603.328V317.541H158.77ZM349.295 444.557H412.803V508.066H349.295V444.557ZM222.279 444.557H285.787V508.066H222.279V444.557ZM476.311 444.557H539.82V508.066H476.311V444.557ZM508.065 254.033V222.279C508.065 188.592 494.683 156.285 470.863 132.465C447.043 108.644 414.736 95.2624 381.049 95.2624C347.362 95.2624 315.055 108.644 291.235 132.465C267.415 156.285 254.033 188.592 254.033 222.279V254.033H508.065Z" fill="black"/>
</svg>
