<svg width="49" height="49" viewBox="0 0 49 49" fill="none" xmlns="http://www.w3.org/2000/svg">
<path d="M24.2381 43.7661C33.2813 40.6487 39.7266 33.403 40.7381 24.1772C41.0185 20.1723 40.9947 16.1518 40.6667 12.1505C40.5769 10.8436 39.5085 9.81909 38.199 9.78419C34.1079 9.65819 29.3535 8.97649 25.679 5.35689C24.8802 4.56919 23.5968 4.56919 22.798 5.35689C19.1231 8.97609 14.3687 9.65819 10.2781 9.78419C8.96861 9.81909 7.90021 10.8436 7.81041 12.1505C7.48211 16.1518 7.45801 20.1722 7.73811 24.1772C8.74961 33.403 15.1949 40.6487 24.2381 43.7661Z" fill="#2F28FB" stroke="#F5F5F5" stroke-linecap="round" stroke-linejoin="round"/>
<path d="M35.7576 23.7255H12.7186C12.5125 20.7177 12.4901 17.6767 12.6512 14.6567C16.1756 14.3569 20.4412 13.4589 24.2381 10.6792V38.4097C30.7537 35.6118 35.0096 30.2299 35.7576 23.7255Z" stroke="white" stroke-linecap="round" stroke-linejoin="round"/>
</svg>
