<svg width="474" height="457" viewBox="0 0 474 457" fill="none" xmlns="http://www.w3.org/2000/svg">
<path d="M236.618 456.102C122.797 456.102 0 384.708 0 228.051C0 71.3934 122.797 0 236.618 0C299.852 0 358.191 20.8061 401.435 58.7465C448.35 100.359 473.236 159.105 473.236 228.051C473.236 296.996 448.35 355.335 401.435 396.947C358.191 434.888 299.444 456.102 236.618 456.102Z" fill="url(#paint0_radial_34_23)"/>
<path d="M431.991 92.4846C453.736 127.569 465.077 169.345 465.077 215.812C465.077 284.757 440.191 343.096 393.276 384.708C350.032 422.648 291.285 443.862 228.459 443.862C154.781 443.862 77.513 413.877 31.9028 350.276C75.7996 422.322 158.371 456.101 236.618 456.101C299.444 456.101 358.191 434.887 401.435 396.947C448.351 355.335 473.236 296.996 473.236 228.05C473.236 176.076 459.08 129.895 431.991 92.4846Z" fill="#EB8F00"/>
<path d="M368.471 41.3268L335.589 84.9787C333.958 87.1001 331.428 88.324 328.736 88.2016L274.15 85.8762C269.663 85.6723 265.828 89.1807 265.624 93.6683C265.542 95.4634 266.073 97.2176 267.093 98.6863L298.465 143.562C299.974 145.724 300.342 148.458 299.444 150.946L280.351 202.186C278.801 206.429 280.963 211.121 285.165 212.671C286.838 213.283 288.633 213.324 290.346 212.834L342.606 196.842C345.177 196.067 347.951 196.597 350.072 198.27L392.867 232.253C396.417 235.027 401.516 234.456 404.331 230.907C405.433 229.479 406.044 227.765 406.085 225.97L407.024 171.344C407.064 168.652 408.451 166.163 410.695 164.695L456.224 134.628C459.977 132.139 461.038 127.08 458.549 123.327C457.57 121.818 456.101 120.675 454.388 120.104L402.699 102.317C400.088 101.46 398.089 99.339 397.355 96.6872L382.831 44.0193C381.608 39.6949 377.079 37.1656 372.755 38.3895C371.041 38.879 369.532 39.8989 368.471 41.3268Z" fill="url(#paint1_radial_34_23)"/>
<path d="M384.341 40.3467L396.58 97.1351C397.518 101.5 400.741 105.009 405.024 106.273L459.61 122.592C463.689 124.061 465.811 128.548 464.342 132.628C463.771 134.26 462.669 135.606 461.201 136.544L412.245 163.143C408.125 165.224 405.514 169.467 405.514 174.077L406.004 233.598C405.881 237.882 402.291 241.268 397.967 241.146C396.253 241.105 394.581 240.493 393.275 239.391L350.521 201.002C347.216 197.983 342.525 197.045 338.282 198.514L284.023 216.994C279.862 218.177 275.537 215.77 274.313 211.609C273.824 209.977 273.905 208.223 274.558 206.632L298.465 152.088C300.26 147.926 299.648 143.153 296.833 139.604L262.115 95.8296C259.708 92.1987 260.687 87.344 264.277 84.8962C265.665 83.9579 267.337 83.5091 269.051 83.5907L325.717 90.0365C330.163 90.5261 334.488 88.5679 337.058 84.937L370.592 37.5318C373.244 34.1049 378.18 33.493 381.567 36.1855C382.954 37.2462 383.892 38.6741 384.341 40.3467Z" fill="#F44336"/>
<path d="M371.368 95.2188L375.447 56.0545C375.733 53.8923 376.059 50.139 379.527 50.8325C382.26 51.4037 382.546 57.3191 382.546 57.3191L387.849 90.5273C389.808 103.133 387.197 106.846 382.464 108.314C376.957 110.15 370.225 106.438 371.368 95.2188Z" fill="#FF847A"/>
<path d="M408.166 159.104L446.8 139.971C448.718 138.91 452.145 137.319 450.309 134.341C448.799 132.016 443.129 133.77 443.129 133.77L411.675 139.196C402.373 140.42 395.683 143.683 394.01 149.191C391.848 156.289 397.355 163.429 408.166 159.104Z" fill="#C62828"/>
<path d="M109.741 30.5978L142.378 78.4926C144.908 82.1642 149.191 84.1633 153.638 83.7553L210.426 78.1662C214.751 78.0438 218.382 81.4299 218.504 85.7543C218.545 87.4269 218.096 89.0588 217.158 90.4051L181.951 133.771C179.095 137.28 178.401 142.053 180.156 146.214L203.205 201.085C204.715 205.124 202.675 209.652 198.636 211.162C197.004 211.774 195.25 211.815 193.577 211.325L139.441 192.028C135.239 190.519 130.547 191.376 127.202 194.313L84.0397 232.05C80.6944 234.742 75.7988 234.212 73.0655 230.866C71.964 229.52 71.352 227.807 71.352 226.093L72.6983 166.572C72.8207 162.043 70.4137 157.882 66.4973 155.638L17.9498 128.305C14.2781 126.102 13.0543 121.288 15.298 117.616C16.2364 116.025 17.7458 114.801 19.5001 114.23L74.371 98.6459C78.6138 97.4628 81.8775 94.0359 82.9382 89.7523L95.9522 33.168C97.1352 29.0068 101.46 26.5998 105.621 27.7829C107.253 28.2316 108.721 29.2515 109.741 30.5978Z" fill="#F44336"/>
<path d="M118.553 86.2832L107.375 48.5059C106.845 46.3845 105.703 42.7945 109.13 42.1417C111.863 41.6114 114.433 46.9965 114.433 46.9965L131.894 75.5538C138.544 86.4872 137.483 90.8524 133.689 94.0345C129.895 97.2166 121.736 97.0942 118.553 86.2832Z" fill="#FF847A"/>
<path d="M176.811 131.202L205.368 98.8093C206.755 97.1367 209.447 94.3625 206.429 92.3227C204.185 90.6909 199.616 94.4849 199.616 94.4849L172.568 111.456C164.408 116.107 159.472 121.655 160.043 127.407C160.737 134.996 168.488 139.483 176.811 131.202Z" fill="#C62828"/>
<path d="M393.561 263.625C387.85 253.304 375.448 248.776 364.433 252.937C322.576 265.135 279.169 271.213 235.558 271.009C191.947 271.213 148.539 265.135 106.682 252.937C95.7083 248.776 83.3062 253.263 77.5947 263.544C72.0465 273.784 76.0445 285.655 80.736 295.895C106.927 353.418 164.654 387.85 235.231 388.054H235.884C306.461 388.054 364.188 353.418 390.42 295.895C395.071 285.574 399.11 273.865 393.561 263.625Z" fill="#422B0D"/>
<path d="M300.872 371.817C299.362 370.43 297.812 369.165 296.262 367.737C279.617 353.092 258.076 345.218 235.883 345.667C213.037 345.299 190.803 352.888 172.976 367.166C171.425 368.431 169.793 369.655 168.284 371.246C166.775 372.837 165.959 373.979 164.979 375.325C187.417 384.097 211.324 388.584 235.435 388.462H236.087C259.178 388.462 282.065 384.341 303.687 376.223C302.871 374.673 301.932 373.204 300.872 371.817Z" fill="#ED7770"/>
<path d="M364.433 252.936C322.576 265.134 279.168 271.213 235.557 271.009C191.946 271.213 148.539 265.134 106.682 252.936C95.7079 248.775 83.3059 253.262 77.5944 263.543C76.7785 265.093 76.1257 266.725 75.7178 268.398C77.064 269.091 78.6143 269.785 80.4501 270.519C129.569 295.119 183.869 307.603 238.78 306.95C291.448 307.562 343.504 296.098 391.073 273.497C392.99 272.681 394.581 271.906 396.009 271.172C395.682 268.52 394.826 265.909 393.561 263.543C387.85 253.262 375.448 248.734 364.433 252.936Z" fill="white"/>
<path d="M393.725 263.666C387.932 253.345 375.489 248.776 364.392 252.937C322.535 265.135 279.128 271.213 235.558 271.009C191.947 271.213 148.539 265.135 106.682 252.937C95.7083 248.776 83.3062 253.263 77.5947 263.544C72.0465 273.784 76.0445 285.655 80.736 295.895C82.8167 300.505 85.142 305.033 87.7122 309.399C87.7122 309.399 79.145 277.659 86.5699 268.439C89.0993 264.523 93.3421 262.075 97.9928 261.83C99.9103 261.83 101.787 262.157 103.623 262.728C146.214 275.252 190.396 281.576 234.823 281.494H236.251C280.678 281.576 324.861 275.252 367.452 262.728C369.288 262.157 371.164 261.83 373.082 261.83C377.732 262.075 382.016 264.523 384.545 268.439C392.093 277.659 383.403 309.521 383.403 309.521C385.933 305.156 388.462 300.668 390.583 296.018C395.234 285.778 399.273 273.947 393.725 263.666Z" fill="#EB8F00"/>
<defs>
<radialGradient id="paint0_radial_34_23" cx="0" cy="0" r="1" gradientUnits="userSpaceOnUse" gradientTransform="translate(236.618 228.051) scale(232.374 232.374)">
<stop offset="0.5" stop-color="#FDE030"/>
<stop offset="0.92" stop-color="#F7C02B"/>
<stop offset="1" stop-color="#F4A223"/>
</radialGradient>
<radialGradient id="paint1_radial_34_23" cx="0" cy="0" r="1" gradientUnits="userSpaceOnUse" gradientTransform="translate(362.761 136.047) scale(97.5474 97.5474)">
<stop offset="0.2" stop-color="#FF4081"/>
<stop offset="0.88" stop-color="#CC1775"/>
</radialGradient>
</defs>
</svg>
