<svg width="840" height="840" viewBox="0 0 840 840" fill="none" xmlns="http://www.w3.org/2000/svg">
<path d="M39 39L801.098 801.098" stroke="black" stroke-width="76.2098" stroke-linecap="round" stroke-linejoin="round"/>
<path d="M218.58 218.954C102.437 297.933 39 420.049 39 420.049C39 420.049 177.563 686.784 420.049 686.784C498.176 686.784 565.511 659.097 620.904 621.563M381.944 155.533C394.344 154.082 407.048 153.315 420.049 153.315C662.534 153.315 801.098 420.049 801.098 420.049C801.098 420.049 774.737 470.794 724.889 528.02" stroke="black" stroke-width="76.2098" stroke-linecap="round" stroke-linejoin="round"/>
<path d="M496.259 505.26C476.033 523.359 449.329 534.368 420.049 534.368C356.913 534.368 305.734 483.189 305.734 420.053C305.734 388.666 318.383 360.236 338.86 339.579" stroke="black" stroke-width="76.2098" stroke-linecap="round" stroke-linejoin="round"/>
</svg>
