<svg width="763" height="763" viewBox="0 0 763 763" fill="none" xmlns="http://www.w3.org/2000/svg">
<path d="M159.008 412.795H535.612L420.345 551.243C417.676 554.454 415.666 558.159 414.429 562.147C413.192 566.135 412.753 570.327 413.136 574.485C413.91 582.881 417.988 590.626 424.473 596.016C430.957 601.406 439.318 603.999 447.714 603.225C456.111 602.451 463.856 598.373 469.246 591.888L628.017 401.364C629.085 399.848 630.04 398.256 630.874 396.6C630.874 395.013 632.462 394.06 633.097 392.472C634.537 388.832 635.29 384.956 635.32 381.041C635.29 377.126 634.537 373.25 633.097 369.61C633.097 368.022 631.51 367.069 630.874 365.481C630.04 363.826 629.085 362.234 628.017 360.718L469.246 170.194C466.26 166.609 462.522 163.727 458.296 161.751C454.07 159.775 449.46 158.755 444.795 158.762C437.376 158.748 430.186 161.332 424.473 166.066C421.257 168.731 418.6 172.005 416.651 175.7C414.703 179.394 413.503 183.437 413.12 187.596C412.736 191.755 413.177 195.949 414.417 199.937C415.657 203.926 417.671 207.63 420.345 210.839L535.612 349.287H159.008C150.587 349.287 142.51 352.632 136.555 358.587C130.6 364.542 127.254 372.619 127.254 381.041C127.254 389.463 130.6 397.539 136.555 403.495C142.51 409.45 150.587 412.795 159.008 412.795Z" fill="#231F20"/>
</svg>
