<svg width="763" height="781" viewBox="0 0 763 781" fill="none" xmlns="http://www.w3.org/2000/svg">
<path d="M398.703 713.466C425.931 691.615 678.768 445.74 681.594 443.052C692.761 431.885 699.791 420.305 701.721 409.69C703.72 398.661 700.343 389.011 691.382 380.05C683.041 371.709 672.84 367.298 661.88 367.298C648.507 367.298 634.79 373.639 623.348 385.151L508.716 495.301C506.717 497.231 504.098 498.196 501.548 498.196C498.859 498.196 496.24 497.163 494.241 495.164C490.243 491.166 490.243 484.686 494.172 480.688L677.182 291.681C695.518 273.346 704.134 245.291 682.352 223.509C674.011 215.168 663.81 210.757 652.85 210.757C639.477 210.757 625.76 217.098 614.318 228.61L427.103 411.137C425.104 413.067 422.484 414.101 419.865 414.101C417.246 414.101 414.557 413.067 412.558 411.068C408.56 407.071 408.492 400.591 412.49 396.524L637.34 166.021C647.749 155.612 654.022 143.136 655.125 131.004C656.158 118.666 651.816 107.223 642.51 97.9177C634.17 89.5771 623.968 85.1655 613.008 85.1655C599.636 85.1655 585.918 91.5071 574.476 102.95L345.144 326.56C343.145 328.49 340.526 329.524 337.907 329.524C335.287 329.524 332.599 328.49 330.6 326.491C326.602 322.493 326.533 316.013 330.531 311.947L497.067 140.792C507.545 130.315 513.817 117.907 514.851 105.776C515.885 93.4372 511.543 81.9947 502.237 72.6891C493.896 64.3486 483.695 59.937 472.735 59.937C459.362 59.937 445.645 66.2786 434.203 77.79C373.13 137.759 213.694 294.576 208.318 300.366C187.845 314.497 183.709 293.129 182.676 279.274C181.504 263.144 199.977 206.828 189.224 156.164C171.164 88.8188 119.122 99.8477 117.95 100.399C89.4127 113.772 94.8582 133.761 104.991 173.948L106.025 181.875C116.64 234.4 43.7118 390.045 38.3353 401.694C9.72915 464.283 -23.2196 591.184 85.8972 700.3C205.491 819.895 353.554 758.616 398.703 713.466Z" fill="url(#paint0_radial_34_73)"/>
<path d="M245.264 780.605C318.606 780.605 380.988 745.519 405.596 721.187C427.723 703.127 567.376 568.299 681.111 457.941C685.73 453.461 688.418 450.91 688.694 450.566C701.584 437.676 709.58 424.234 711.854 411.551C714.474 397.145 709.993 384.117 698.689 372.743C688.349 362.404 675.666 356.958 661.88 356.958C645.681 356.958 629.413 364.403 616.041 377.844L501.548 487.857L684.627 298.85C705.719 277.757 716.335 242.81 689.659 216.202C679.319 205.863 666.636 200.417 652.85 200.417C636.651 200.417 620.384 207.862 607.011 221.303L419.934 403.693L644.716 173.259C656.71 161.265 664.085 146.583 665.395 131.969C666.705 116.391 661.328 102.123 649.817 90.6112C639.477 80.2717 626.794 74.8262 613.008 74.8262C596.878 74.8262 580.611 82.2017 567.169 95.6432L337.907 319.184L504.443 148.03C516.505 135.967 523.881 121.285 525.122 106.672C526.431 91.1627 521.055 76.8941 509.544 65.3827C499.204 55.0432 486.521 49.5977 472.735 49.5977C456.536 49.5977 440.268 57.0421 426.896 70.4836L377.197 119.217C288.622 206.07 214.59 278.791 206.663 286.925C202.803 290.027 197.771 291.199 195.635 290.165C194.256 289.475 192.739 286.305 193.015 279.618C193.429 267.9 195.083 253.356 196.806 237.984C200.253 207.104 203.837 175.12 199.357 154.027C189.569 117.425 170.337 101.916 156 95.2296C136.285 86.1308 117.192 89.3016 113.538 91.0248C77.6946 107.844 84.7944 135.967 94.5825 174.982L94.7893 175.947L95.8922 184.012C103.061 219.304 66.2521 316.841 29.4433 396.318L28.8918 397.42C4.28369 451.186 -40.0386 589.116 78.5217 707.676C133.046 762.062 192.05 780.605 245.264 780.605ZM661.88 377.637C670.013 377.637 677.734 381.015 684.075 387.357C690.624 393.905 692.898 400.247 691.52 407.829C690.003 416.17 683.869 426.096 674.287 435.746C674.218 435.815 671.461 438.503 666.705 443.052C505.27 599.731 407.802 692.856 392.224 705.402L391.397 706.16C353.347 744.209 211.971 811.761 93.2039 692.994C-16.1886 583.602 24.9628 455.873 47.7788 405.968L48.2613 404.934C71.9733 353.788 125.877 229.713 116.296 180.221L114.71 169.881C104.095 127.696 103.475 118.873 121.465 110.187C126.773 109.222 164.823 104.604 179.367 158.852C183.02 176.154 179.505 207.793 176.403 235.71C174.611 251.495 172.956 266.453 172.543 278.929C171.854 298.574 181.159 306.088 186.811 308.845C198.323 314.428 212.04 309.672 220.587 302.503L221.483 301.676C225.688 297.127 325.706 199.039 391.879 134.106L441.647 85.2347C458.604 68.2089 480.455 65.3827 495.137 80.0649C502.306 87.2337 505.546 95.6432 504.787 104.949C503.96 114.668 498.721 124.801 489.967 133.555L323.087 304.709C315.229 312.705 315.229 325.802 323.225 333.798C330.876 341.449 344.386 341.587 352.244 334.005L581.714 110.325C598.671 93.3685 620.59 90.5423 635.204 105.224C642.372 112.393 645.612 120.803 644.854 130.108C643.958 139.828 638.719 150.029 630.034 158.646L405.114 389.287C397.187 397.283 397.256 410.379 405.252 418.375C412.903 426.027 426.413 426.164 434.272 418.582L621.555 235.985C638.512 218.891 660.432 216.133 675.045 230.816C692.898 248.669 683.386 270.795 669.876 284.375L486.728 473.52C478.869 481.516 478.938 494.543 486.934 502.47C494.655 510.191 508.027 510.26 515.885 502.746L630.516 392.595C640.167 382.876 651.264 377.637 661.88 377.637Z" fill="#EDBD82"/>
<path d="M224.792 293.681C262.635 370.952 257.741 479.104 200.942 565.887C194.532 577.605 183.572 571.884 189.155 559.821C257.741 413.069 185.846 307.329 185.846 307.329L224.792 293.681Z" fill="#EDBD82"/>
<path d="M373.613 3.89728C352.796 -1.54822 330.6 -1.0657 309.025 3.96622C287.588 9.136 266.15 20.027 250.227 37.811C234.649 55.4572 225.068 76.8946 221.828 99.3659C218.795 121.63 221.621 144.584 232.168 163.609C233.408 142.241 237.131 122.595 243.403 104.467C246.643 95.4369 250.434 86.8206 255.052 78.6868C259.602 70.6219 264.978 62.626 270.7 56.0776C282.349 42.6362 298.134 32.1587 315.849 24.025C333.633 15.6155 353.003 9.41172 373.613 3.89728Z" fill="#B0BEC5"/>
<path d="M367.891 69.2443C356.38 61.9377 341.974 60.4213 328.394 62.8338C314.677 65.2464 301.58 72.0705 291.241 81.514C280.97 91.0953 273.664 103.158 269.114 115.703C266.908 121.976 265.806 128.593 264.772 135.004C264.427 141.621 264.427 148.239 265.461 154.856C270.217 149.824 273.939 144.792 277.455 139.898C281.522 135.28 284.692 130.386 288.346 125.905C295.515 117.013 302.477 108.948 309.99 101.78C317.71 94.8175 325.844 88.6827 335.287 83.3751C344.662 77.9296 355.208 73.3802 367.891 69.2443Z" fill="#90A4AE"/>
<path d="M761.967 505.985C752.247 525.01 742.115 542.656 730.328 558.235C718.609 573.813 705.168 587.048 689.521 595.664C681.938 599.869 672.909 603.522 664.085 606.279C655.193 609.105 645.957 611.035 636.444 612.345C617.42 614.689 597.43 614.275 576.268 611.035C592.674 625.304 614.593 632.886 636.927 634.541C659.536 636.057 682.49 631.163 703.031 619.583C723.71 607.796 738.875 589.047 748.387 569.126C757.9 549.067 763.001 527.492 761.967 505.985Z" fill="#B0BEC5"/>
<path d="M696.827 497.921C690.141 509.502 683.524 518.807 676.286 526.941C669.117 535.075 661.397 541.761 652.988 547.827C644.44 553.686 635.066 558.856 624.864 564.026C619.763 566.645 614.318 568.713 608.941 571.746C603.358 574.158 597.705 576.709 591.777 580.362C598.05 582.706 604.461 584.084 611.009 585.118C617.488 585.394 624.175 585.739 630.792 584.843C644.027 583.05 657.261 578.432 668.842 570.367C680.215 562.165 689.659 550.791 694.828 537.901C700.067 525.08 701.584 510.742 696.827 497.921Z" fill="#90A4AE"/>
<defs>
<radialGradient id="paint0_radial_34_73" cx="0" cy="0" r="1" gradientUnits="userSpaceOnUse" gradientTransform="translate(505.434 234.813) rotate(-135) scale(627.319)">
<stop offset="0.3533" stop-color="#F9DDBD"/>
<stop offset="0.8723" stop-color="#FFD29C"/>
</radialGradient>
</defs>
</svg>
