<svg width="306" height="219" viewBox="0 0 306 219" fill="none" xmlns="http://www.w3.org/2000/svg">
<path d="M203.16 6.67187C206.571 8.08774 210.899 17.484 215.066 15.8911C216.965 13.3651 203.482 2.42425 203.031 3.30917C200.344 3.14828 200.425 7.57288 203.16 6.67187Z" fill="#3D9CFB"/>
<path d="M234.809 24.1113C232.17 23.4516 232.17 37.9804 234.712 36.9829C236.981 38.2217 237.351 23.1942 234.809 24.1113Z" fill="#3D9CFB"/>
<path d="M252.619 38.5608C245.105 40.1697 257.639 44.1117 260.744 44.6426C261.158 44.7493 261.597 44.6872 261.965 44.4699C262.333 44.2527 262.6 43.8981 262.707 43.4842C262.813 43.0702 262.751 42.6309 262.534 42.2628C262.317 41.8947 261.962 41.6279 261.548 41.5213C258.499 40.7681 255.514 39.7783 252.619 38.5608Z" fill="#3D9CFB"/>
<path d="M227.02 11.5463C228.676 9.75706 230.509 8.13988 232.49 6.7195C233.07 6.86431 232.313 12.4634 234.84 12.1577C238.057 11.482 235.676 2.97066 232.893 3.34071C232.313 1.78003 218.686 12.9461 227.02 11.5463Z" fill="#3D9CFB"/>
<path d="M197.802 31.0294C201.39 29.9353 199.411 24.3362 200.762 20.0725C200.794 19.8621 200.784 19.6475 200.732 19.4411C200.68 19.2347 200.588 19.0405 200.461 18.8699C200.334 18.6994 200.174 18.5557 199.991 18.4473C199.808 18.3389 199.605 18.2678 199.394 18.2383C196.724 17.1281 195.34 32.22 197.802 31.0294Z" fill="#3D9CFB"/>
<path d="M126.092 43.1772C132.849 44.7861 124.483 37.0954 124.66 34.3441C122.809 31.1262 126.108 26.0097 123.34 23.9664C117.468 26.9912 122.005 39.3157 126.092 43.1772Z" fill="#3D9CFB"/>
<path d="M276.608 87.9217C279.182 82.2421 292.086 75.3559 287.517 73.4412C281.644 70.9634 272.57 72.5885 262.208 74.6479C250.173 57.5287 239.023 43.0804 220.005 65.1712C212.91 59.2342 197.48 55.6463 186.217 59.4916C180.731 62.7095 193.972 69.0005 193.055 72.4919C193.055 74.5675 192.106 77.5118 185.879 77.8015C154.215 84.366 178.221 98.7178 186.716 106.859C211.462 77.7371 199.475 91.4614 218.139 102.756C220.037 102.451 227.873 93.5852 231.107 93.1991C235.419 92.6842 239.152 110.061 242.128 111.026C253.874 99.0235 258.218 108.645 262.739 126.553C269.641 125.362 270.59 121.903 272.65 120.326C278.877 131.202 269.271 140.309 266.214 143.479C275.385 144.058 283.784 133.584 281.757 126.038C288.192 124.155 297.09 126.858 297.701 121.082C298.168 115.58 293.164 102.145 276.608 87.9217Z" fill="#3D9CFB"/>
<path d="M249.884 24.3517C253.874 24.6896 259.537 30.4657 262.852 27.1513C262.594 23.9334 253.761 23.0324 250.865 21.2786C251.123 18.9939 254.26 16.0335 251.847 14.4245C251.652 14.3393 251.443 14.2934 251.231 14.2893C251.019 14.2853 250.808 14.3232 250.611 14.401C250.413 14.4788 250.233 14.5948 250.081 14.7424C249.929 14.89 249.807 15.0663 249.723 15.2612C248.774 19.4605 243.287 27.3444 246.714 30.7231C249.659 30.7553 248.774 26.4112 249.884 24.3517Z" fill="#3D9CFB"/>
<path d="M99.5607 46.3953C102.586 45.3494 109.214 47.6502 110.823 44.0945C108.989 40.5709 102.521 43.7727 99.4642 43.1613C99.0353 43.1741 98.6291 43.3567 98.3349 43.669C98.0407 43.9813 97.8827 44.3977 97.8955 44.8265C97.9083 45.2554 98.0909 45.6616 98.4032 45.9558C98.7155 46.25 99.1319 46.4081 99.5607 46.3953Z" fill="#3D9CFB"/>
<path d="M283.19 30.6917C285.056 32.542 290.929 19.429 288.113 18.7694C284.316 19.0107 284.268 26.3958 282.369 28.5518C282.281 28.7459 282.232 28.9557 282.226 29.1688C282.219 29.382 282.255 29.5943 282.332 29.7934C282.408 29.9925 282.523 30.1745 282.671 30.3287C282.818 30.4829 282.994 30.6063 283.19 30.6917Z" fill="#3D9CFB"/>
<path d="M277.589 44.1753C281.387 43.9339 281.435 36.5489 283.35 34.3768C283.435 34.1835 283.482 33.9752 283.487 33.7638C283.492 33.5524 283.456 33.3421 283.379 33.1448C283.303 32.9476 283.189 32.7673 283.043 32.6142C282.897 32.4612 282.722 32.3385 282.529 32.253C280.679 30.3062 274.742 43.6926 277.589 44.1753Z" fill="#3D9CFB"/>
<path d="M260.793 11.7712C263.576 11.916 268.596 17.6599 271.508 15.2304C271.782 11.4011 264.123 10.4036 261.967 8.79461C261.584 8.68862 261.176 8.72805 260.82 8.90531C260.465 9.08256 260.187 9.38511 260.041 9.75468C259.896 10.1243 259.892 10.5347 260.03 10.907C260.169 11.2793 260.441 11.5871 260.793 11.7712Z" fill="#3D9CFB"/>
<path d="M275.354 53.4734C279.971 53.5539 279.971 46.1366 275.144 46.3941C270.446 46.3941 271.106 53.747 275.354 53.4734Z" fill="#3D9CFB"/>
<path d="M91.5803 26.6361C94.4603 27.344 93.1892 12.5578 90.7276 13.7645C88.3624 12.6865 89.2634 27.5692 91.5803 26.6361Z" fill="#3D9CFB"/>
<path d="M146.075 17.193C147.684 12.1892 127.33 11.2882 135.391 16.0185C138.48 14.7314 143.356 19.4938 146.075 17.193Z" fill="#3D9CFB"/>
<path d="M150.242 35.7283C147.024 35.5835 146.477 42.325 142.857 43.1616C139.044 51.9787 155.407 38.7692 150.242 35.7283Z" fill="#3D9CFB"/>
<path d="M129.148 146.873C123.466 145.612 117.684 144.858 111.868 144.621C105.722 173.083 44.0511 173.099 34.51 159.391C28.181 164.057 23.8709 170.963 22.459 178.698C39.8678 181.626 67.5095 214.256 63.8572 230.184C150.628 225.358 102.745 204.264 121.602 180.967C126.378 182.722 131.284 184.099 136.276 185.086C127.62 174.161 129.148 146.873 129.148 146.873Z" fill="#3D9CFB"/>
<path d="M187.955 30.8689C188.107 30.47 188.093 30.0271 187.918 29.6379C187.743 29.2487 187.421 28.9449 187.022 28.7934C186.623 28.6419 186.18 28.6551 185.791 28.8301C185.402 29.0052 185.098 29.3276 184.946 29.7266C183.434 33.749 179.782 38.0449 174.054 38.0449C171.721 38.785 168.004 35.1166 166.234 37.53C166.146 37.7241 166.097 37.9339 166.091 38.147C166.084 38.3602 166.12 38.5725 166.197 38.7716C166.273 38.9707 166.388 39.1527 166.536 39.3069C166.683 39.4611 166.859 39.5845 167.055 39.6699C168.98 40.6423 171.094 41.1845 173.25 41.259C175.406 41.3335 177.552 40.9385 179.54 40.1014C181.528 39.2642 183.31 38.005 184.763 36.4109C186.216 34.8167 187.305 32.9257 187.955 30.8689Z" fill="#3D9CFB"/>
<path d="M4.24604 26.8461C-3.52517 25.4784 8.38104 35.4217 10.4083 36.1297C15.4121 33.8128 5.85499 29.1629 4.24604 26.8461Z" fill="#3D9CFB"/>
<path d="M177.98 12.4291C178.468 11.4733 178.887 10.4839 179.235 9.46869C170.369 3.3386 153.363 17.1595 159.783 20.7313C164.577 15.5988 167.924 8.16544 177.98 12.4291Z" fill="#3D9CFB"/>
<path d="M25.5636 43.3535C28.862 43.4983 27.4944 36.3868 29.1033 35.1801C31.9833 35.8558 36.1827 41.7928 39.3684 41.5354C42.5058 42.002 42.4898 36.4833 39.2075 38.3175C35.7161 37.0303 31.6937 30.4015 27.607 32.3161C25.9498 32.7666 22.4423 41.9376 25.5636 43.3535Z" fill="#3D9CFB"/>
<path d="M64.1467 42.9204C65.9326 46.5405 70.5824 43.3548 75.6667 42.5181C76.0764 42.3987 76.4218 42.1213 76.627 41.7472C76.8321 41.373 76.8803 40.9327 76.7608 40.523C76.6413 40.1134 76.364 39.768 75.9898 39.5628C75.6157 39.3576 75.1753 39.3095 74.7657 39.429C69.8262 41.7619 65.6752 39.6059 64.1467 42.9204Z" fill="#3D9CFB"/>
<path d="M61.525 14.3933C63.4718 12.9774 71.6453 14.8277 72.7876 11.4811C72.4176 7.6518 54.0273 11.6581 61.525 14.3933Z" fill="#3D9CFB"/>
<path d="M41.847 18.6724C45.3545 17.16 42.6193 9.38881 43.649 7.52243C43.6847 7.09797 43.5506 6.67669 43.2761 6.35095C43.0016 6.02522 42.6092 5.82161 42.1849 5.78477C39.8036 4.25627 38.8543 19.0425 41.847 18.6724Z" fill="#3D9CFB"/>
<path d="M211.639 191.378C209.628 189.174 210.738 181.113 206.684 180.115C202.629 179.118 199.331 186.197 195.839 187.243C192.348 188.289 184.577 186.358 183.595 190.075C182.453 194.081 187.73 196.301 187.65 200.227C187.569 204.684 181.536 207.805 184.126 211.731C186.218 214.949 192.975 211.828 196.998 213.051C201.68 214.499 205.783 221.465 209.483 220.339C213.184 219.213 210.481 211.699 212.701 207.693C214.921 203.686 222.097 202.206 221.792 198.232C221.486 194.258 213.65 193.582 211.639 191.378Z" fill="#3D9CFB"/>
<path d="M59.3517 29.9364C78.289 27.8126 76.9214 22.1491 58.6277 26.7185C57.6784 24.5625 58.8851 20.5079 56.0051 20.2827C52.7872 21.5859 55.7155 26.268 55.8603 29.1319C56.2143 36.3882 62.3926 38.8178 59.3517 29.9364Z" fill="#3D9CFB"/>
<path d="M271.605 46.3939C271.926 44.0127 275.756 44.785 275.418 46.941C275.398 47.205 275.325 47.4623 275.202 47.6968C275.079 47.9312 274.909 48.1379 274.703 48.3038C274.496 48.4698 274.258 48.5916 274.003 48.6616C273.747 48.7316 273.48 48.7483 273.218 48.7107C272.956 48.6731 272.704 48.5819 272.479 48.443C272.254 48.304 272.059 48.1202 271.908 47.9029C271.757 47.6856 271.652 47.4395 271.599 47.1799C271.547 46.9204 271.549 46.6528 271.605 46.3939Z" fill="#001434"/>
<path d="M282.514 29.0664C283.093 27.4574 291.411 11.8024 284.251 16.6292C283.222 22.4053 272.667 37.5455 275.756 41.1013C279.376 41.1817 280.503 31.4154 282.514 29.0664Z" fill="#001434"/>
<path d="M63.6811 41.4233C63.9385 41.9221 81.0738 39.1064 72.9325 36.3551C57.0844 40.651 61.9917 37.2722 57.5188 26.8624C61.0263 25.2534 69.956 27.0072 70.8248 22.5826C69.2158 19.9117 60.1253 23.7732 56.7787 23.7249C55.6363 12.3014 51.7105 11.867 69.3607 10.0811C69.7874 10.0597 70.1881 9.86974 70.4748 9.55291C70.7614 9.23609 70.9105 8.81837 70.8892 8.39165C70.8678 7.96494 70.6778 7.56417 70.361 7.27752C70.0442 6.99087 69.6265 6.84182 69.1998 6.86316C59.2404 7.32975 54.0757 9.16395 52.9494 12.6232C51.8231 18.3671 54.7192 41.5681 63.6811 41.4233Z" fill="#001434"/>
<path d="M258.862 41.5691C259.275 41.6758 259.715 41.6137 260.083 41.3964C260.451 41.1792 260.718 40.8246 260.824 40.4107C260.931 39.9967 260.869 39.5574 260.652 39.1893C260.434 38.8212 260.08 38.5544 259.666 38.4478C250.881 36.2113 246.569 33.6209 246.215 32.6877C245.877 30.2421 246.73 25.7692 248.065 21.2803C251.653 21.5699 258.282 27.4747 261.017 24.0799C261.323 21.1998 251.621 19.7679 249.047 18.2072C253.182 4.9173 255.338 6.301 267.502 12.8333C267.878 13.02 268.313 13.052 268.712 12.9225C269.112 12.7929 269.445 12.5122 269.641 12.1402C269.836 11.7683 269.878 11.3346 269.758 10.9319C269.638 10.5293 269.365 10.1896 268.998 9.98549C261.548 6.07574 255.161 2.68087 251.863 5.67351C247.792 9.27755 242.112 26.7346 242.965 33.1382C243.609 37.2571 254.228 40.4107 258.862 41.5691Z" fill="#001434"/>
<path d="M161.408 34.4406C181.311 49.7095 199.041 15.9055 177.401 6.39662C159.703 -1.1976 146.847 23.9663 161.408 34.4406ZM160.234 15.1332C173.105 -4.43159 195.421 22.0195 177.417 33.6844C168.246 39.3479 152.591 26.8463 160.234 15.0528V15.1332Z" fill="#001434"/>
<path d="M90.7433 41.5676C94.4921 45.5257 102.006 42.356 107.444 42.7904C107.871 42.7904 108.28 42.6209 108.582 42.3192C108.884 42.0175 109.053 41.6082 109.053 41.1815C108.184 37.9636 102.617 40.4575 100.638 40.0392C89.7779 41.9538 92.8832 36.7086 91.6282 26.2505C90.695 23.6923 92.8027 11.9309 88.9573 10.8046C85.6268 10.1288 89.4239 41.8573 90.7433 41.5676Z" fill="#001434"/>
<path d="M13.095 38.0122C24.8724 50.5298 24.5346 42.5333 27.1732 32.1235C30.1981 32.6383 34.6709 39.2833 38.0336 38.4305C41.3963 37.9318 41.6859 31.9947 41.6055 16.4201C40.7367 11.5933 43.5362 4.24041 40.3022 2.71191C35.7972 3.32331 40.1253 32.3326 37.3096 35.2126C25.146 25.929 24.8081 25.929 21.6867 41.1979C18.1631 40.4739 4.72843 22.0675 0.142933 23.95C-1.46601 27.0875 12.7893 36.3067 13.095 38.0122Z" fill="#001434"/>
<path d="M195.968 27.9729C196.178 27.9952 196.391 27.9759 196.594 27.916C196.796 27.856 196.985 27.7567 197.15 27.6238C197.314 27.4908 197.451 27.3267 197.551 27.1409C197.652 26.9551 197.716 26.7512 197.738 26.541C199.154 13.6694 200.65 6.10734 201.599 3.79046C218.284 20.7809 214.471 17.5952 230.673 3.61348C232.185 8.66557 231.027 25.0446 231.236 32.3493C231.236 32.776 231.406 33.1852 231.707 33.487C232.009 33.7887 232.418 33.9582 232.845 33.9582C236.272 32.3493 233.617 26.5249 234.534 22.599C234.985 3.45258 235.339 -7.03775 222.467 6.6383C220.247 8.87473 216.9 12.2535 215.71 12.4466C212.492 11.6904 202.838 -2.19482 200.087 0.572567C199.266 1.05525 197.11 2.3585 194.504 26.2192C194.484 26.4306 194.506 26.6439 194.569 26.8468C194.632 27.0496 194.734 27.238 194.871 27.401C195.007 27.5641 195.174 27.6985 195.362 27.7967C195.55 27.8948 195.756 27.9547 195.968 27.9729Z" fill="#001434"/>
<path d="M134.683 44.7863C139.703 46.1378 152.382 38.0609 148.408 32.7353C148.209 32.6606 147.998 32.626 147.786 32.6334C147.574 32.6408 147.365 32.69 147.172 32.7782C146.979 32.8664 146.806 32.9919 146.662 33.1475C146.517 33.303 146.405 33.4855 146.332 33.6845C142.181 45.269 126.108 43.7726 122.825 31.3194C119.543 18.8661 129.808 8.68152 142.133 14.9403C142.323 15.0337 142.529 15.0886 142.741 15.1019C142.952 15.1152 143.164 15.0867 143.364 15.0179C143.565 14.9492 143.749 14.8415 143.908 14.7012C144.067 14.5609 144.196 14.3906 144.289 14.2002C143.211 7.60352 127.813 9.38945 125.062 12.9774C113.783 21.537 119.302 44.5288 134.683 44.7863Z" fill="#001434"/>
<path d="M210.03 115.58C206.651 101.099 183.74 109.337 190.16 122.627C191.769 126.005 198.205 123.447 200.586 126.633C206.474 129.545 211.269 120.969 210.03 115.58ZM193.088 121.275C192.648 120.31 192.426 119.26 192.437 118.2C192.449 117.139 192.693 116.094 193.154 115.139C193.615 114.184 194.28 113.342 195.103 112.673C195.926 112.004 196.886 111.524 197.915 111.268C198.378 115.288 199.379 119.227 200.891 122.981C198.502 121.692 195.798 121.101 193.088 121.275Z" fill="#001434"/>
<path d="M85.4811 157.042C85.08 156.903 84.64 156.928 84.2573 157.112C83.8745 157.296 83.5799 157.624 83.4378 158.024C82.1667 161.917 75.8596 162.143 73.6393 159.086C73.3809 158.747 72.9986 158.524 72.5763 158.467C72.154 158.41 71.7262 158.522 71.3868 158.78C69.0538 162.094 75.5539 164.556 78.3535 164.459C81.8449 164.91 89.0691 160.228 85.4811 157.042Z" fill="#001434"/>
<path d="M229.047 140.18C226.891 139.36 206.216 128.773 204.704 137.381C204.302 143.382 206.184 147.935 211.815 149.77C220.713 153.374 228.613 152.987 229.82 141.725C229.851 141.421 229.795 141.114 229.658 140.84C229.521 140.567 229.31 140.338 229.047 140.18ZM223.738 147.951C221.823 149.56 209.853 147.774 208.372 142.69C212.248 144.07 216.209 145.199 220.23 146.069C225.234 143.897 218.01 141.918 215.983 141.66C211.783 140.293 207.359 140.164 208.051 137.252C214.148 137.429 222.644 140.583 226.457 142.433C225.974 145.361 225.105 147.115 223.738 147.951Z" fill="#001434"/>
<path d="M212.203 126.922C212.331 130.237 222.323 134.533 223.674 130.816C223.674 126.777 210.063 130.816 216.836 120.309C217.56 119.72 218.439 119.353 219.367 119.253C220.296 119.153 221.233 119.324 222.065 119.746C231.381 117.075 209.387 110.543 212.203 126.922Z" fill="#001434"/>
<path d="M241.791 118.235C233.376 117.334 227.874 127.374 231.816 134.325C232.111 134.944 232.596 135.453 233.201 135.778C233.806 136.102 234.499 136.224 235.178 136.127C238.782 135.499 242.209 137.382 246.103 138.427C256.722 135.515 252.941 117.769 241.791 118.235ZM234.728 132.844C234.133 131.829 233.78 130.69 233.696 129.517C233.613 128.343 233.801 127.166 234.246 126.076C234.691 124.987 235.381 124.015 236.263 123.235C237.144 122.456 238.194 121.89 239.329 121.582C240.146 125.805 241.436 129.923 243.175 133.858C240.46 132.939 237.583 132.594 234.728 132.844Z" fill="#001434"/>
<path d="M279.054 86.7793C303.735 67.311 288.016 60.2156 260.1 64.9781C248.275 41.3426 236.208 35.47 219.684 61.8406C206.008 45.7511 155.889 49.854 185.896 71.269C174.537 71.269 162.148 78.8311 160.78 88.5813C160.539 94.631 170.434 98.6051 176.66 102.434C174.07 107.615 176.274 117.494 180.812 121.018C179.908 124.804 179.534 128.697 179.701 132.586C175.746 132.959 171.891 134.049 168.326 135.804C167.345 124.429 172.445 110.704 157.9 101.791C155.519 100.584 144.272 96.7709 136.903 101.453C128.859 105.877 132.961 118.138 128.344 116.32C118.063 115.129 121.49 125.973 127.25 132.94C128.456 134.388 128.328 136.801 128.183 139.569C123.854 138.033 119.321 137.149 114.732 136.946C114.719 132.204 113.745 127.513 111.868 123.158C115.955 116.303 112.834 102.692 104.596 100.085C99.3505 88.0665 82.7462 84.7681 73.4304 88.2273C68.4588 85.3956 62.9401 83.9475 57.3409 85.5565C58.8229 83.8489 60.6782 82.5055 62.7631 81.6307C77.0988 75.1949 72.5133 61.9693 59.5452 62.8542C63.3906 51.2698 46.6736 49.8218 40.2378 57.1425C34.1882 39.9268 8.47723 58.494 23.3761 71.4621C6.2408 73.1193 -2.56014 102 19.9651 97.881C18.7745 104.317 24.792 108.404 30.9703 106.296C30.4814 107.705 30.1101 109.153 29.8601 110.624C24.5667 113.214 22.282 118.492 23.537 125.008C18.3079 131.315 21.1557 141.773 26.7549 147.758C28.5891 149.496 27.9294 152.585 28.8948 154.773C8.23589 171.748 -9.0442 187.403 6.36951 209.638C11.679 217.892 21.928 225.39 25.6769 231.906C10.1344 244.022 54.2196 261.463 64.5168 232.276C84.9505 238.809 109.97 230.877 127.716 222.269C140.974 212.744 120.025 195.85 123.195 183.139C136.308 187.355 150.386 187.403 164.304 185.762C143.774 224.923 194.134 242.928 231.3 238.229C232.684 259.757 268.403 263.699 276.576 244.022C278.684 238.68 288.096 242.558 290.156 236.427C293.373 230.877 285.152 226.468 287.436 221.834C299.616 196.188 287.983 170.477 267.244 148.692C267.517 147.639 267.679 146.56 267.727 145.474C276.335 144.862 286.246 139.183 289.834 129.931C295.031 131.814 304.443 138.716 305.73 129.143C306.599 111.879 296.06 95.2423 279.054 86.7793ZM179.492 104.108C181.359 105.25 183.354 106.537 185.461 108.001C184 111.042 182.784 114.195 181.825 117.43C180.434 115.54 179.499 113.354 179.094 111.043C178.689 108.731 178.826 106.358 179.492 104.108ZM105.963 104.397C109.809 107.615 111.305 114.453 110.034 119.055C108.447 115.987 106.629 113.045 104.596 110.254C105.245 109.441 105.704 108.493 105.941 107.48C106.177 106.467 106.185 105.414 105.963 104.397ZM101.716 101.372C105.481 110.785 99.0448 110.913 89.8417 106.199C104.226 108.629 95.4891 92.3945 80.8155 94.1483C79.6137 92.8364 78.306 91.6256 76.9057 90.5281C85.1435 88.8709 97.6772 92.121 101.716 101.372ZM61.7173 88.0343C78.032 86.7793 96.6475 117.462 68.0565 110.753C93.4135 108.468 63.7767 83.0787 52.9968 95.8055C52.0952 95.4742 51.1702 95.2107 50.2294 95.0171C53.1094 90.496 57.0031 88.1308 61.7173 88.0343ZM47.0759 102.804C42.603 102.257 37.213 105.186 35.6202 109.031C34.8697 109.092 34.1231 109.194 33.3837 109.337C41.0423 79.5873 82.4727 116.738 51.8866 118.411C62.4735 116.384 61.4759 105.475 47.0759 102.804ZM59.1591 66.1526C69.5207 64.7689 71.5479 73.956 62.2321 78.2519C66.8337 62.3394 46.014 73.6825 47.9125 85.7013C47.0877 84.7919 46.1271 84.0158 45.0647 83.4005C45.2256 76.9647 50.4225 67.311 59.1591 66.1526ZM40.2378 61.7923C49.5215 49.6126 66.8176 58.3814 49.2158 67.6972C58.0167 52.5248 35.1858 61.2614 39.5621 75.8385C38.7162 75.1283 37.818 74.4829 36.8751 73.9077C36.5318 71.7652 36.6544 69.5739 37.2347 67.4832C37.815 65.3924 38.8393 63.4513 40.2378 61.7923ZM22.6199 59.8294C25.2264 52.4926 37.8244 50.5458 37.4705 60.1351C36.8766 60.8658 36.3388 61.6403 35.8615 62.452C32.4666 47.9715 17.9057 63.2082 31.2117 71.623C25.0011 71.2851 20.5443 63.9162 22.6199 59.8294ZM21.5741 93.2473C16.9403 96.4652 13.0949 95.9664 10.3919 92.3462C5.56504 80.9388 25.9826 67.9063 36.8912 77.8657C24.8885 71.269 8.28416 92.0405 22.6842 91.5418C22.282 92.1049 21.8958 92.668 21.5741 93.2473ZM24.3254 102.579C18.324 92.0727 40.7366 77.8496 47.0276 89.8363C38.7254 83.4005 18.7262 100.729 34.6226 100.005C31.8231 104.317 24.6311 103.738 24.3254 102.579ZM31.1151 113.52C52.8842 105.894 48.1539 133.069 36.7786 126.392C43.6005 127.679 47.7838 116.271 38.0336 115.386C30.8577 114.743 28.7339 120.583 28.1547 123.045C27.6224 122.952 27.078 122.952 26.5457 123.045C26.0148 118.701 27.6076 115.338 31.1151 113.52ZM24.438 129.915C28.5891 117.542 42.8765 143.575 49.4893 121.565C50.3474 121.629 51.1519 121.661 51.9027 121.661C49.1514 122.578 48.1378 127.035 51.9027 125.619C57.0031 121.42 62.2643 120.535 67.5578 123.013C67.7499 123.102 67.9579 123.152 68.1696 123.161C68.3813 123.17 68.5927 123.136 68.7915 123.063C68.9903 122.99 69.1727 122.878 69.3282 122.734C69.4838 122.59 69.6093 122.417 69.6977 122.224C70.4539 119.006 65.0478 119.007 63.0688 118.476C64.541 117.256 65.5143 115.538 65.804 113.649C73.8487 116.094 84.8057 115.837 86.0928 107.873C87.7844 108.909 89.5481 109.823 91.3702 110.608C88.5223 110.72 77.6298 116.609 83.0841 119.087C93.0435 109.514 96.1005 116.223 98.8196 112.458C99.8094 112.497 100.799 112.372 101.748 112.088C143.21 166.808 41.5572 183.541 31.3243 150.976C29.5383 143.462 21.6706 138.105 24.438 129.915ZM57.7432 237.489C57.2605 235.398 57.3892 230.844 54.4127 231.504C54.217 231.585 54.0392 231.704 53.8895 231.854C53.7398 232.004 53.6213 232.182 53.5405 232.377C53.4598 232.573 53.4186 232.783 53.4191 232.995C53.4197 233.207 53.4621 233.416 53.5438 233.612C54.3929 235.809 54.7605 238.163 54.6218 240.514C52.0719 242.526 49.1027 243.939 45.9335 244.649C45.9335 242.638 47.5425 236.781 44.3246 236.234C44.1116 236.249 43.9037 236.305 43.7127 236.4C43.5218 236.496 43.3518 236.628 43.2125 236.79C43.0733 236.952 42.9676 237.139 42.9016 237.342C42.8356 237.545 42.8107 237.759 42.8282 237.972C43.0374 240.675 43.1661 243.619 42.3456 245.164C37.036 246.467 21.5419 240.112 26.5618 234.979C31.9518 231.134 26.8514 227.98 21.2523 221.754C12.7249 213.532 -1.48215 198.424 5.03409 185.649C9.42651 179.213 17.0368 177.363 25.4034 180.71C44.3085 191.039 72.7386 218.826 57.7432 237.489ZM123.276 179.744C123.79 172.472 121.361 166.326 115.343 159.761C115.053 159.447 114.65 159.262 114.223 159.245C113.797 159.229 113.38 159.382 113.067 159.673C112.753 159.963 112.568 160.366 112.551 160.793C112.534 161.22 112.688 161.636 112.978 161.949C120.669 169.72 120.412 176.993 119.832 186.083C119.832 195.946 126.88 204.265 128.746 213.436C131.272 225.889 74.3958 235.687 65.2087 228.946C66.3028 218.97 61.9104 210.942 53.6243 200.339C55.4907 196.992 65.4822 190.54 63.8411 186.84C59.9153 185.73 54.7988 195.657 51.5166 197.861C43.3431 188.481 25.3712 170.38 10.2632 177.218C15.8818 169.705 22.6278 163.106 30.2624 157.653C49.7789 179.744 109.004 174.049 114.539 140.1C119.113 140.278 123.629 141.196 127.909 142.819C127.105 150.558 125.48 172.407 132.398 182.077C129.322 181.443 126.278 180.665 123.276 179.744ZM144.192 183.445C121.184 184.507 135.166 140.261 130.339 131.669C127.121 127.035 123.34 121.581 125.512 119.554C127.62 118.717 131.176 121.05 133.026 117.945C135.021 112.925 133.476 104.719 141.569 102.853C142.486 104.783 139.751 112.168 143.05 113.423C146.67 112.362 144.256 104.317 144.819 102.37C147.25 102.286 149.681 102.535 152.044 103.11C152.341 106.047 152.341 109.006 152.044 111.943C152.023 112.166 152.05 112.391 152.122 112.603C152.194 112.816 152.309 113.011 152.46 113.176C152.612 113.341 152.796 113.472 153.001 113.562C153.207 113.652 153.428 113.698 153.652 113.697C156.87 112.716 155.068 106.602 155.406 104.043C166.202 108.404 165.317 120.969 165.156 128.177C164.883 146.761 167.731 184.893 144.176 183.445H144.192ZM284.412 220.451C280.743 225.133 289.238 231.408 287.179 234.931C286.375 236.62 283.688 237.682 279.81 237.827C270.8 239.179 273.97 251.535 259.151 253.016C259.094 249.338 259.391 245.664 260.036 242.043C256.706 234.593 255.515 249.508 255.949 253.305C252.204 253.429 248.474 252.777 244.992 251.391C244.546 247.324 245.161 243.21 246.778 239.452C246.871 239.261 246.925 239.054 246.937 238.842C246.95 238.63 246.92 238.417 246.849 238.217C246.779 238.016 246.67 237.832 246.528 237.674C246.386 237.516 246.214 237.387 246.022 237.296C241.469 237.071 241.887 247.24 241.63 249.701C225.669 239.259 240.021 217.973 246.666 201.095C255 192.165 271.25 186.116 281.548 188.127C296.511 190.814 286.133 214.626 284.396 220.483L284.412 220.451ZM287.533 187.033C275.048 180.597 256.706 187.612 245.604 197.636C244.172 195.673 236.578 182.045 236.642 190.202C239.281 194.08 240.841 196.107 243.496 200.339C238.557 211.215 232.233 224.473 231.332 234.867C202.066 238.905 170.192 227.514 163.757 210.62C160.249 201.208 166.202 184.04 178.237 168.884C178.37 168.718 178.469 168.528 178.528 168.324C178.587 168.12 178.605 167.907 178.581 167.696C178.557 167.485 178.491 167.281 178.388 167.096C178.285 166.91 178.146 166.747 177.98 166.615C173.298 165.988 168.744 178.167 165.961 182.013C162.906 182.696 159.791 183.079 156.661 183.155C168.986 174 167.377 153.953 168.31 139.344C171.93 137.34 175.932 136.122 180.055 135.772C181.262 144.653 187.617 148.836 194.439 153.261C199.861 165.843 203.015 173.968 210.754 174.515C219.314 173.405 226.843 166.857 237.318 163.14C248.098 161.981 258.845 159.681 265.732 151.877C276.576 163.848 283.897 175.593 287.517 187.065L287.533 187.033ZM199.041 155.723C208.424 160.292 218.652 162.867 229.08 163.285C211.88 171.893 207.568 177.524 198.96 155.803L199.041 155.723ZM266.874 138.716C262.498 143.028 266.552 150.638 258.91 153.583C237.43 167.452 178.318 159.246 183.289 125.828C184.898 113.761 192.557 97.5592 204.318 91.2522C207.729 95.532 210.754 100.906 215.227 103.641C216.128 104.073 217.13 104.247 218.124 104.145C219.118 104.042 220.064 103.668 220.858 103.062C222.869 101.759 230.013 94.0517 231.847 95.0171C234.148 100.005 235.934 105.701 238.943 110.238C237.205 110.238 231.847 108.21 231.252 111.348C231.252 111.775 231.422 112.184 231.723 112.486C232.025 112.787 232.434 112.957 232.861 112.957C239.425 112.844 242.145 114.566 246.135 116.094C249.9 115.065 246.215 112.152 244.059 111.75C246.698 110.495 248.709 107.953 251.026 106.344C260.792 112.04 256.48 140.518 272.264 122.434C273.035 125.39 272.928 128.508 271.956 131.405C270.985 134.302 269.191 136.854 266.794 138.748L266.874 138.716ZM268.209 142.063C272.602 137.896 275.836 133.23 275.981 127.212C279.636 127.247 283.27 127.788 286.777 128.821C283.639 136.496 275.45 141.323 268.129 142.095L268.209 142.063ZM302.496 128.869C301.499 134.388 293.019 126.359 289.432 126.279C285.071 124.804 280.503 124.038 275.9 124.01C274.002 111.267 265.201 127.775 263.286 124.638C262.369 122.482 257.381 98.7016 248.5 104.14C246.537 105.347 243.673 109.771 241.662 108.5C230.834 88.2273 237.076 87.1654 217.045 101.099C212.009 98.589 209.998 91.4452 205.364 88.2273C197.046 88.9031 191.318 98.4442 186.974 105.137C179.557 97.8328 155.294 93.8747 167.908 81.9846C171.962 78.1714 178.8 74.1008 186.314 74.5352C186.977 74.6564 187.662 74.5663 188.271 74.2776C188.88 73.9889 189.383 73.5162 189.709 72.9263C190.465 67.3271 180.055 64.5758 179.203 59.749C186.974 51.4468 207.713 54.4395 217.994 64.7689C217.093 67.6972 212.459 72.6367 215.34 75.0822C215.54 75.1504 215.752 75.1782 215.964 75.1641C216.175 75.15 216.382 75.0943 216.572 75.0001C216.762 74.9059 216.931 74.7751 217.07 74.6153C217.209 74.4554 217.316 74.2696 217.383 74.0686C223.561 58.9123 236.385 41.1656 245.218 49.7735C252.635 56.1128 261.307 71.1886 262.079 82.6765C262.079 83.1032 262.249 83.5124 262.551 83.8142C262.852 84.1159 263.262 84.2854 263.688 84.2854C267.92 82.1616 262.739 72.4918 261.5 68.196C277.3 65.7343 287.613 66.9088 288.547 71.4139C288.466 75.1466 279.279 81.2606 276.463 85.0416C276.17 85.3942 275.96 85.8086 275.85 86.2537C275.74 86.6988 275.731 87.1632 275.826 87.612C275.92 88.0608 276.115 88.4824 276.395 88.8453C276.676 89.2082 277.034 89.503 277.445 89.7076C296.929 99.2164 303.124 116.207 302.496 128.869Z" fill="#001434"/>
<path d="M199.845 103.062C207.89 101.55 209.064 108.082 212.218 106.586C213.827 101.485 204.656 99.3937 199.604 99.8603C199.2 99.9178 198.832 100.127 198.576 100.445C198.321 100.763 198.195 101.167 198.226 101.574C198.257 101.981 198.441 102.362 198.742 102.638C199.042 102.914 199.437 103.066 199.845 103.062Z" fill="#001434"/>
<path d="M58.7736 146.229C73.5598 146.133 71.8222 124.653 57.6152 126.729C45.2424 128.129 47.0926 146.294 58.7736 146.229ZM60.3825 129.866C70.0362 131.588 65.9495 145.795 56.4406 142.577C58.7267 138.705 60.0765 134.352 60.3825 129.866Z" fill="#001434"/>
<path d="M95.5855 137.141C110.066 137.141 108.811 116.128 94.8615 118.187C83.4058 119.635 84.1298 137.205 95.5855 137.141ZM97.1945 121.26C106.494 122.435 103.341 136.047 93.88 133.665C95.7208 129.765 96.8331 125.561 97.1623 121.26H97.1945Z" fill="#001434"/>
<path d="M73.5593 142.723C72.1273 144.236 74.5407 146.456 75.9405 144.896C76.9723 143.785 78.3928 143.114 79.9063 143.024C81.4198 142.935 82.9097 143.432 84.0657 144.413C84.2226 144.557 84.4064 144.668 84.6065 144.74C84.8066 144.812 85.0191 144.844 85.2316 144.833C85.444 144.823 85.6523 144.77 85.8444 144.679C86.0364 144.587 86.2084 144.459 86.3504 144.3C87.6376 138.202 75.6348 139.168 73.5593 142.723Z" fill="#001434"/>
<path d="M73.8004 137.14C76.6965 136.802 74.3635 133.214 76.2299 131.508C78.595 128.934 83.2288 131.621 81.8451 134.823C81.7406 135.237 81.8047 135.675 82.0235 136.042C82.2422 136.408 82.5977 136.673 83.0116 136.778C83.4255 136.882 83.864 136.818 84.2306 136.599C84.5972 136.381 84.8619 136.025 84.9665 135.611C87.2351 128.87 78.048 124.349 73.7038 129.465C72.4167 131.122 70.5825 136.496 73.8004 137.14Z" fill="#001434"/>
<path d="M78.3226 157.669C83.9379 157.814 83.5034 151.974 85.7077 148.707C86.9305 147.887 87.8637 146.905 87.1397 146.149C83.1495 145.972 77.486 148.45 72.0799 146.954C70.471 146.664 69.8917 147.452 69.94 148.563C70.1331 152.328 73.8015 157.669 78.3226 157.669ZM75.1047 149.029C76.2793 149.029 78.3226 149.029 80.6395 148.836C84.1309 149.142 79.7546 153.953 77.8239 153.261C75.0565 153.373 73.0775 149.898 75.0565 149.029H75.1047Z" fill="#001434"/>
</svg>
